<svg viewBox="0 0 40 40" fill="currentColor" xmlns="http://www.w3.org/2000/svg">
  <g clip-path="url(#clip0_17_900)">
    <path d="M21 12C24.93 12 28.32 14.79 29.085 18.645L29.535 20.895L31.83 21.06C34.17 21.21 36 23.175 36 25.5C36 27.975 33.975 30 31.5 30H12C8.685 30 6 27.315 6 24C6 20.925 8.295 18.36 11.34 18.045L12.945 17.88L13.695 16.455C15.12 13.71 17.91 12 21 12ZM21 9C16.665 9 12.9 11.46 11.025 15.06C6.51 15.54 3 19.365 3 24C3 28.965 7.035 33 12 33H31.5C35.64 33 39 29.64 39 25.5C39 21.54 35.925 18.33 32.025 18.06C31.005 12.885 26.46 9 21 9Z" fill="currentColor"/>
  </g>
  <defs>
    <clipPath id="clip0_17_900">
      <rect width="40" height="40" fill="white"/>
    </clipPath>
  </defs>
</svg>
