<?xml version="1.0" encoding="UTF-8"?>
<svg width="384px" height="300px" viewBox="0 0 384 300" version="1.1" xmlns="http://www.w3.org/2000/svg" xmlns:xlink="http://www.w3.org/1999/xlink">
    <!-- Generator: Sketch 62 (91390) - https://sketch.com -->
    <title>digitalservice4germany-logo-black</title>
    <desc>Created with Sketch.</desc>
    <g id="digitalservice4germany-logo-black" stroke="none" stroke-width="1" fill="none" fill-rule="evenodd">
        <path d="M26.88,62 C43.04,62 54.96,51.6 54.96,33.68 C54.96,15.76 43.12,5.28 26.96,5.28 L6.64,5.28 L6.64,62 L26.88,62 Z M26.48,51.76 L17.68,51.76 L17.68,15.52 L26.56,15.52 C35.84,15.52 43.52,21.36 43.52,33.68 C43.52,46 35.76,51.76 26.48,51.76 Z M68.12,16.24 C71.8,16.24 74.68,13.28 74.68,9.76 C74.68,6.08 71.8,3.12 68.12,3.12 C64.52,3.12 61.56,6.08 61.56,9.76 C61.56,13.28 64.52,16.24 68.12,16.24 Z M73.48,62 L73.48,22.64 L62.84,22.64 L62.84,62 L73.48,62 Z M100.16,78.4 C114.96,78.4 120.8,68.56 120.8,57.76 L120.8,22.64 L110.56,22.64 L110.56,27.28 C109.2,24.64 105.6,21.92 99.36,21.92 C88.56,21.92 81.04,30.72 81.04,41.12 C81.04,52.16 88.88,60.24 99.36,60.24 C105.04,60.24 108.72,57.76 110.32,55.2 L110.32,58.08 C110.32,65.68 106.56,69.04 99.84,69.04 C94.8,69.04 91.36,65.92 90.64,61.6 L81.04,64.16 C82.16,71.68 89.36,78.4 100.16,78.4 Z M101.2,51.12 C95.68,51.12 91.76,47.28 91.76,41.12 C91.76,35.04 95.92,31.2 101.2,31.2 C106.32,31.2 110.48,35.04 110.48,41.12 C110.48,47.2 106.64,51.12 101.2,51.12 Z M135.96,16.24 C139.64,16.24 142.52,13.28 142.52,9.76 C142.52,6.08 139.64,3.12 135.96,3.12 C132.36,3.12 129.4,6.08 129.4,9.76 C129.4,13.28 132.36,16.24 135.96,16.24 Z M141.32,62 L141.32,22.64 L130.68,22.64 L130.68,62 L141.32,62 Z M166.96,62.56 C170.08,62.56 172,62 172.96,61.6 L172.96,52.8 C172.4,52.96 170.96,53.12 169.68,53.12 C166.64,53.12 165.04,52 165.04,48.56 L165.04,32.08 L172.96,32.08 L172.96,22.64 L165.04,22.64 L165.04,10.88 L155.44,10.88 L155.44,16.4 C155.44,19.92 153.52,22.64 149.36,22.64 L147.36,22.64 L147.36,32.08 L154.48,32.08 L154.48,50.4 C154.48,58 159.28,62.56 166.96,62.56 Z M191.72,63.12 C197.56,63.12 201.32,60.4 203.32,57.28 C203.32,58.8 203.48,60.96 203.72,62 L213.48,62 C213.24,60.64 213,57.84 213,55.76 L213,36.4 C213,28.48 208.36,21.44 195.88,21.44 C185.32,21.44 179.64,28.24 179,34.4 L188.44,36.4 C188.76,32.96 191.32,30 195.96,30 C200.44,30 202.6,32.32 202.6,35.12 C202.6,36.48 201.88,37.6 199.64,37.92 L189.96,39.36 C183.4,40.32 178.2,44.24 178.2,51.28 C178.2,57.44 183.32,63.12 191.72,63.12 Z M193.96,55.2 C190.52,55.2 188.84,52.96 188.84,50.64 C188.84,47.6 191,46.08 193.72,45.68 L202.6,44.32 L202.6,46.08 C202.6,53.04 198.44,55.2 193.96,55.2 Z M233.2,62 L233.2,4.08 L222.56,4.08 L222.56,62 L233.2,62 Z M25.2,133.2 C38.4,133.2 45.68,124.4 45.68,115.68 C45.68,107.68 40.16,100.96 29.84,98.96 L21.92,97.44 C17.76,96.64 15.76,94.16 15.76,91.04 C15.76,87.28 19.28,83.84 24.64,83.84 C31.84,83.84 34.4,88.72 34.96,91.84 L44.88,88.8 C43.6,82.4 38.32,74.08 24.56,74.08 C13.84,74.08 4.8,81.76 4.8,91.84 C4.8,100.4 10.64,106.24 19.68,108.08 L27.6,109.68 C32,110.56 34.48,113.12 34.48,116.4 C34.48,120.4 31.2,123.36 25.28,123.36 C17.28,123.36 13.36,118.32 12.88,112.72 L2.64,115.44 C3.52,123.52 10.16,133.2 25.2,133.2 Z M71.32,133.2 C81,133.2 87.24,127.52 89.24,120.72 L80.36,118.08 C79.08,121.6 76.36,124.08 71.4,124.08 C66.12,124.08 61.72,120.32 61.48,115.12 L89.64,115.12 C89.64,114.96 89.8,113.36 89.8,111.84 C89.8,99.2 82.52,91.44 70.36,91.44 C60.28,91.44 51,99.6 51,112.16 C51,125.44 60.52,133.2 71.32,133.2 Z M79.32,107.84 L61.72,107.84 C61.96,104.24 65,100.08 70.52,100.08 C76.6,100.08 79.16,103.92 79.32,107.84 Z M108,132 L108,114 C108,105.52 112.72,102.88 118.16,102.88 C119.12,102.88 120.16,102.96 121.36,103.2 L121.36,92.48 C120.56,92.4 119.76,92.32 118.88,92.32 C115.52,92.32 110.08,93.28 107.68,98.48 L107.68,92.64 L97.36,92.64 L97.36,132 L108,132 Z M149.64,132 L164.92,92.64 L153.72,92.64 L144.36,119.04 L134.6,92.64 L122.92,92.64 L139,132 L149.64,132 Z M176,86.24 C179.68,86.24 182.56,83.28 182.56,79.76 C182.56,76.08 179.68,73.12 176,73.12 C172.4,73.12 169.44,76.08 169.44,79.76 C169.44,83.28 172.4,86.24 176,86.24 Z M181.36,132 L181.36,92.64 L170.72,92.64 L170.72,132 L181.36,132 Z M209.56,133.2 C220.04,133.2 226.2,126.48 227.96,119.92 L218.6,116.8 C217.72,119.84 215,123.44 209.56,123.44 C204.12,123.44 199.48,119.44 199.48,112.32 C199.48,105.2 204.04,101.28 209.48,101.28 C214.76,101.28 217.24,104.64 218.2,107.92 L227.72,104.72 C226.04,98.08 219.96,91.44 209.24,91.44 C197.8,91.44 188.84,100.16 188.84,112.32 C188.84,124.4 197.96,133.2 209.56,133.2 Z M252.72,133.2 C262.4,133.2 268.64,127.52 270.64,120.72 L261.76,118.08 C260.48,121.6 257.76,124.08 252.8,124.08 C247.52,124.08 243.12,120.32 242.88,115.12 L271.04,115.12 C271.04,114.96 271.2,113.36 271.2,111.84 C271.2,99.2 263.92,91.44 251.76,91.44 C241.68,91.44 232.4,99.6 232.4,112.16 C232.4,125.44 241.92,133.2 252.72,133.2 Z M260.72,107.84 L243.12,107.84 C243.36,104.24 246.4,100.08 251.92,100.08 C258,100.08 260.56,103.92 260.72,107.84 Z M37.76,202 L37.76,190.88 L46.32,190.88 L46.32,181.44 L37.76,181.44 L37.76,150.08 L24.16,150.08 L2.32,179.36 L2.32,190.88 L26.88,190.88 L26.88,202 L37.76,202 Z M26.88,181.44 L12.08,181.44 L26.88,161.6 L26.88,181.44 Z M79.16,203.2 C87.72,203.2 93.32,199.36 95.88,195.52 L96.6,202 L105.56,202 L105.56,172.48 L77.24,172.48 L77.24,182.08 L95.16,182.08 C94.52,186.08 90.44,193.12 79.96,193.12 C70.44,193.12 62.04,186.48 62.04,173.68 C62.04,160.24 71.32,154.4 79.88,154.4 C89.08,154.4 93.8,160.24 95.24,165.28 L105.8,161.52 C103,152.8 94.76,144.08 79.88,144.08 C64.52,144.08 50.84,155.36 50.84,173.68 C50.84,192 63.88,203.2 79.16,203.2 Z M132.48,203.2 C142.16,203.2 148.4,197.52 150.4,190.72 L141.52,188.08 C140.24,191.6 137.52,194.08 132.56,194.08 C127.28,194.08 122.88,190.32 122.64,185.12 L150.8,185.12 C150.8,184.96 150.96,183.36 150.96,181.84 C150.96,169.2 143.68,161.44 131.52,161.44 C121.44,161.44 112.16,169.6 112.16,182.16 C112.16,195.44 121.68,203.2 132.48,203.2 Z M140.48,177.84 L122.88,177.84 C123.12,174.24 126.16,170.08 131.68,170.08 C137.76,170.08 140.32,173.92 140.48,177.84 Z M169.16,202 L169.16,184 C169.16,175.52 173.88,172.88 179.32,172.88 C180.28,172.88 181.32,172.96 182.52,173.2 L182.52,162.48 C181.72,162.4 180.92,162.32 180.04,162.32 C176.68,162.32 171.24,163.28 168.84,168.48 L168.84,162.64 L158.52,162.64 L158.52,202 L169.16,202 Z M199.2,202 L199.2,178.96 C199.2,174.64 201.92,171.2 206.56,171.2 C211.36,171.2 213.52,174.4 213.52,178.64 L213.52,202 L224.08,202 L224.08,178.96 C224.08,174.72 226.8,171.2 231.36,171.2 C236.24,171.2 238.32,174.4 238.32,178.64 L238.32,202 L248.64,202 L248.64,176.48 C248.64,165.92 241.68,161.52 234.4,161.52 C229.2,161.52 225.04,163.28 221.92,168.08 C219.92,163.84 215.6,161.52 210.24,161.52 C205.92,161.52 200.88,163.6 198.72,167.44 L198.72,162.64 L188.56,162.64 L188.56,202 L199.2,202 Z M269.32,203.12 C275.16,203.12 278.92,200.4 280.92,197.28 C280.92,198.8 281.08,200.96 281.32,202 L291.08,202 C290.84,200.64 290.6,197.84 290.6,195.76 L290.6,176.4 C290.6,168.48 285.96,161.44 273.48,161.44 C262.92,161.44 257.24,168.24 256.6,174.4 L266.04,176.4 C266.36,172.96 268.92,170 273.56,170 C278.04,170 280.2,172.32 280.2,175.12 C280.2,176.48 279.48,177.6 277.24,177.92 L267.56,179.36 C261,180.32 255.8,184.24 255.8,191.28 C255.8,197.44 260.92,203.12 269.32,203.12 Z M271.56,195.2 C268.12,195.2 266.44,192.96 266.44,190.64 C266.44,187.6 268.6,186.08 271.32,185.68 L280.2,184.32 L280.2,186.08 C280.2,193.04 276.04,195.2 271.56,195.2 Z M310.8,202 L310.8,179.36 C310.8,174.8 313.52,171.2 318.16,171.2 C323.28,171.2 325.44,174.64 325.44,179.04 L325.44,202 L336.08,202 L336.08,177.2 C336.08,168.56 331.6,161.6 321.84,161.6 C317.6,161.6 312.88,163.44 310.48,167.52 L310.48,162.64 L300.16,162.64 L300.16,202 L310.8,202 Z M358.44,217.52 L383.16,162.64 L371.8,162.64 L362.12,185.68 L351.64,162.64 L339.72,162.64 L356.44,197.04 L347.16,217.52 L358.44,217.52 Z" id="DigitalService4Germany" fill="#000000" fill-rule="nonzero"></path>
    </g>
</svg>